HIERARCHY
ROOT Hips
{
	OFFSET -0.179506 -22.333345 2.821913
	CHANNELS 6 Xposition Yposition Zposition Zrotation Yrotation Xrotation 
	JOINT LeftUpLeg
	{
		OFFSET 6.951974 -9.140623 -0.681533
		CHANNELS 3 Zrotation Yrotation Xrotation
		JOINT LeftLeg
		{
			OFFSET 3.427654 -37.519855 -0.449580
			CHANNELS 3 Zrotation Yrotation Xrotation
			JOINT LeftFoot
			{
				OFFSET -1.359570 -39.796059 -4.369333
				CHANNELS 3 Zrotation Yrotation Xrotation
				JOINT LeftToe
				{
					OFFSET 2.635814 -5.579078 11.928840
					CHANNELS 3 Zrotation Yrotation Xrotation
					End Site
					{
						OFFSET 0.000000 0.000000 0.000000
					}
				}
			}
		}
	}
	JOINT RightUpLeg
	{
		OFFSET -6.767048 -9.052170 -0.431982
		CHANNELS 3 Zrotation Yrotation Xrotation
		JOINT RightLeg
		{
			OFFSET -3.829005 -38.256897 -0.885003
			CHANNELS 3 Zrotation Yrotation Xrotation
			JOINT RightFoot
			{
				OFFSET 1.577377 -39.841461 -4.231180
				CHANNELS 3 Zrotation Yrotation Xrotation
				JOINT RightToe
				{
					OFFSET -2.537174 -4.814398 12.334795
					CHANNELS 3 Zrotation Yrotation Xrotation
					End Site
					{
						OFFSET 0.000000 0.000000 0.000000
					}
				}
			}
		}
	}
	JOINT Spine
	{
		OFFSET -0.253288 10.896323 -2.669631
		CHANNELS 3 Zrotation Yrotation Xrotation
		JOINT Spine1
		{
			OFFSET 0.548704 13.518043 0.109247
			CHANNELS 3 Zrotation Yrotation Xrotation
			JOINT Spine2
			{
				OFFSET 0.145701 5.292222 2.542457
				CHANNELS 3 Zrotation Yrotation Xrotation
				JOINT Neck
				{
					OFFSET -0.277840 21.387037 -4.285703
					CHANNELS 3 Zrotation Yrotation Xrotation
					JOINT Head
					{
						OFFSET 0.515184 6.496960 5.134897
						CHANNELS 3 Zrotation Yrotation Xrotation
						End Site
						{
							OFFSET 0.000000 0.000000 0.000000
						}
					}
				}
				JOINT LeftShoulder
				{
					OFFSET 7.884473 12.174932 -3.408961
					CHANNELS 3 Zrotation Yrotation Xrotation
					JOINT LeftArm
					{
						OFFSET 9.097692 3.046888 -0.886815
						CHANNELS 3 Zrotation Yrotation Xrotation
						JOINT LeftForeArm
						{
							OFFSET 25.961220 -1.277207 -2.745643
							CHANNELS 3 Zrotation Yrotation Xrotation
							JOINT LeftHand
							{
								OFFSET 24.923361 0.898606 -0.117091
								CHANNELS 3 Zrotation Yrotation Xrotation
								End Site
								{
									OFFSET 0.000000 0.000000 0.000000
								}
							}
						}
					}
				}
				JOINT RightShoulder
				{
					OFFSET -8.175920 11.883285 -3.861528
					CHANNELS 3 Zrotation Yrotation Xrotation
					JOINT RightArm
					{
						OFFSET -9.601238 3.255117 -0.914307
						CHANNELS 3 Zrotation Yrotation Xrotation
						JOINT RightForeArm
						{
							OFFSET -25.374195 -1.332924 -2.140099
							CHANNELS 3 Zrotation Yrotation Xrotation
							JOINT RightHand
							{
								OFFSET -25.529810 0.777228 -0.555919
								CHANNELS 3 Zrotation Yrotation Xrotation
								End Site
								{
									OFFSET 0.000000 0.000000 0.000000
								}
							}
						}
					}
				}
			}
		}
	}
}
MOTION
Frames: 15
Frame Time: 0.033333
69.634407 9.170918 42.314289 -164.759327 4.742175 96.060065 11.237546 1.057161 -36.147481 -16.189267 14.343767 138.138921 0.079974 0.418503 -24.264507 nan nan nan -16.964332 -13.680604 -97.529188 -10.508628 -18.870621 131.633694 -4.459605 -11.189900 -38.292497 nan nan nan 6.564139 -6.811723 55.568687 3.343374 9.521060 -3.439520 1.620965 2.938270 1.245594 0.352571 -4.877921 -15.738811 0.724681 -10.744285 -6.975062 -22.556266 -11.689123 5.130778 -51.157754 11.354152 7.321516 -4.053723 -33.145747 16.442130 2.590686 -13.348473 -9.301046 20.346802 26.835175 11.716928 17.707730 8.812150 -9.348029 -8.472285 35.043379 -0.510415 -6.899789 6.403490 11.926759 
69.547195 9.307376 41.909897 -164.594343 4.186998 95.640881 10.902976 0.822670 -36.186927 -16.232831 14.241692 138.502894 -0.844723 0.114160 -24.047145 nan nan nan -17.557562 -13.968100 -97.426259 -10.544283 -18.023117 131.899177 -3.956433 -10.082137 -38.547230 nan nan nan 6.400943 -7.020913 57.055701 2.777637 9.318535 -7.681980 1.495379 1.653993 3.566514 0.890052 -3.254321 -15.199116 -0.231485 -11.313854 -5.282370 -20.393804 -9.509864 3.892128 -52.565259 10.875555 7.332931 -4.841148 -31.151193 18.273101 3.024765 -15.037098 -9.745473 17.989650 25.312936 5.850069 21.876631 13.696020 -6.535872 -6.960221 29.696248 2.452146 -9.666735 7.504853 18.955982 
69.478195 9.447523 41.838364 -164.634010 4.125276 95.278547 10.936379 0.873718 -35.822407 -16.274667 14.100683 138.439880 -0.942766 0.316767 -24.155797 nan nan nan -17.634228 -13.929033 -97.037724 -10.389156 -17.861967 131.947040 -3.931266 -9.988051 -38.544321 nan nan nan 6.391090 -7.031496 57.318972 2.679613 9.275473 -7.655819 1.468233 1.669846 3.650202 0.819584 -3.230100 -14.843313 -0.086006 -11.300168 -5.564699 -20.562075 -9.576059 3.897903 -52.267128 11.037683 7.160681 -5.040913 -31.094676 18.216542 2.838868 -15.053225 -9.404375 18.069746 25.406826 5.903540 21.888026 13.565695 -6.519921 -6.923042 29.694369 2.834717 -10.303283 7.575710 20.178273 
68.681473 9.430359 42.235435 -163.145472 2.819064 93.616717 7.767453 -0.609799 -34.297744 -15.988245 13.740187 138.075722 -0.558023 1.994873 -24.382764 nan nan nan -19.094600 -15.900349 -94.042489 -9.736861 -16.779088 131.615936 -3.319474 -9.130781 -38.776132 nan nan nan 7.594194 -8.525367 60.139109 2.087127 8.005698 -9.838096 0.825919 1.197347 5.022300 0.724861 -3.709805 -16.390789 -0.555357 -11.217374 -4.501384 -20.143146 -9.845465 3.073654 -52.743004 10.573427 7.170630 -5.167293 -30.232455 18.454751 3.184408 -15.956004 -9.646929 16.633633 25.161041 3.892328 22.637056 13.354913 -5.558731 -6.638699 29.444494 3.211334 -11.805687 8.272571 23.000033 
68.581841 9.736770 42.360840 -162.909867 2.252262 93.568812 7.324534 -1.285428 -34.216248 -14.651983 12.466359 138.356550 -1.153335 0.605768 -24.447397 nan nan nan -19.656650 -16.409146 -93.988998 -9.654835 -16.243036 132.710325 -2.697191 -7.660722 -37.840007 nan nan nan 7.490213 -8.245760 61.191542 1.752339 8.098878 -11.788545 0.805939 0.962294 4.581306 1.086758 -4.661067 -13.324962 -0.046325 -10.478380 -6.362387 -20.304004 -10.321645 3.608132 -53.165396 10.812480 7.198020 -3.088430 -28.641063 17.123441 -1.351107 -17.964923 -8.889484 16.395967 25.147095 2.828608 24.763201 11.353198 -4.798737 -8.983434 32.942233 -5.065762 -2.970266 7.411497 7.197507 
68.577415 10.028516 42.582905 -162.268765 2.824042 92.316338 7.804834 -1.287237 -32.471532 -16.064702 11.650326 137.453096 -3.854993 -1.621432 -24.541861 nan nan nan -20.755530 -16.003585 -91.418587 -10.786562 -16.023094 133.271024 -1.920381 -6.087762 -38.415333 nan nan nan 7.950806 -8.892501 63.038718 1.756067 8.113273 -12.593615 0.858913 1.124190 4.955935 1.217994 -3.919919 -13.002932 -0.113626 -11.145541 -7.576228 -20.134939 -10.841972 3.041749 -53.814906 10.975988 7.444762 -2.167338 -27.797483 16.167308 -2.200554 -19.643924 -8.591798 16.096211 25.318520 1.650852 24.783223 10.270834 -4.274448 -8.469217 33.571748 -4.971035 -3.277874 7.707848 7.133554 
68.566322 10.043888 42.605499 -162.144733 2.871359 92.163704 7.896208 -1.426299 -32.295807 -16.026144 11.597862 137.423808 -4.768456 -2.040644 -24.602662 nan nan nan -21.020913 -16.067066 -91.006155 -10.931618 -16.036340 133.341516 -1.656930 -5.628174 -38.563819 nan nan nan 8.047152 -8.988711 63.283764 1.821740 8.170372 -13.085432 0.795553 1.198290 5.538473 1.289868 -3.615666 -13.157209 -0.243983 -11.492430 -7.907025 -19.885993 -10.907005 3.056263 -54.936090 10.765962 8.685200 -0.282095 -27.623822 17.112554 -0.191445 -20.126229 -11.505470 16.021462 25.151047 1.168339 24.852186 10.087712 -3.777205 -8.735047 33.760395 -4.037943 -3.436803 8.015460 5.518370 
68.563133 10.043762 42.603195 -162.143975 2.871353 92.158878 7.897065 -1.426673 -32.291912 -16.026630 11.591368 137.421645 -4.773336 -2.033678 -24.605970 nan nan nan -21.023818 -16.067143 -91.002850 -10.928990 -16.034926 133.347954 -1.654673 -5.621408 -38.568260 nan nan nan 8.047180 -8.988428 63.289775 1.821283 8.172880 -13.091317 0.795394 1.198033 5.543281 1.291717 -3.616829 -13.147731 -0.243611 -11.496584 -7.915739 -19.885941 -10.901949 3.057399 -54.933700 10.767563 8.693915 -0.278762 -27.627467 17.124075 -0.181781 -20.125014 -11.525436 16.020716 25.147668 1.167065 24.854972 10.083052 -3.768974 -8.736074 33.775766 -4.034684 -3.450430 8.024892 5.500650 
68.563110 10.043430 42.602997 -162.143933 2.871175 92.158625 7.896319 -1.427445 -32.291297 -16.026306 11.590756 137.420995 -4.774063 -2.031034 -24.605671 nan nan nan -21.024232 -16.067135 -91.002536 -10.928233 -16.035068 133.349226 -1.654909 -5.620089 -38.570995 nan nan nan 8.047579 -8.988414 63.290002 1.821201 8.173214 -13.092468 0.795214 1.197447 5.544599 1.291667 -3.616802 -13.147093 -0.244008 -11.498177 -7.916291 -19.885859 -10.901395 3.057445 -54.933586 10.767355 8.695898 -0.277835 -27.627628 17.124165 -0.180306 -20.124197 -11.528722 16.020920 25.147108 1.166920 24.854382 10.083292 -3.767675 -8.736513 33.777691 -4.034582 -3.453220 8.026446 5.498347 
68.563202 10.043256 42.602718 -162.143924 2.870904 92.158454 7.894909 -1.428166 -32.290711 -16.025855 11.590614 137.420062 -4.774815 -2.027224 -24.604837 nan nan nan -21.024665 -16.067325 -91.002342 -10.927328 -16.035077 133.350135 -1.655219 -5.619092 -38.573854 nan nan nan 8.048041 -8.988627 63.290332 1.820994 8.173272 -13.093816 0.794939 1.196817 5.545879 1.291385 -3.616723 -13.146704 -0.244415 -11.499393 -7.916700 -19.885930 -10.900965 3.057474 -54.933496 10.767184 8.697453 -0.277243 -27.627882 17.124423 -0.178604 -20.123332 -11.531986 16.020969 25.146508 1.166831 24.854318 10.083602 -3.766666 -8.736205 33.778717 -4.034788 -3.456687 8.027492 5.495926 
68.563148 10.043199 42.602612 -162.143845 2.870650 92.158508 7.893760 -1.428965 -32.290442 -16.024817 11.590541 137.419131 -4.774588 -2.022601 -24.605371 nan nan nan -21.025029 -16.067595 -91.002382 -10.926622 -16.035178 133.350510 -1.655192 -5.618638 -38.575512 nan nan nan 8.048351 -8.988872 63.290485 1.820839 8.173236 -13.095107 0.794705 1.196323 5.547042 1.291276 -3.616685 -13.146933 -0.244942 -11.500161 -7.916556 -19.885961 -10.900446 3.057480 -54.933392 10.766848 8.698593 -0.277076 -27.628079 17.124633 -0.177310 -20.122745 -11.534960 16.021118 25.146037 1.166651 24.854349 10.084257 -3.765680 -8.736479 33.778908 -4.035573 -3.458853 8.028395 5.494856 
68.562965 10.043052 42.602348 -162.143175 2.869916 92.159018 7.890592 -1.432037 -32.289788 -16.019823 11.589885 137.415600 -4.771349 -2.003599 -24.610765 nan nan nan -21.026269 -16.068817 -91.002670 -10.924493 -16.036003 133.351319 -1.654359 -5.618014 -38.579558 nan nan nan 8.049290 -8.989646 63.290700 1.820573 8.173239 -13.099936 0.794168 1.194344 5.551342 1.291478 -3.616971 -13.148246 -0.247204 -11.502265 -7.915196 -19.885965 -10.898028 3.057482 -54.933136 10.765138 8.702271 -0.276868 -27.628097 17.124502 -0.171977 -20.119559 -11.544959 16.021895 25.144269 1.165520 24.854290 10.087540 -3.761383 -8.738870 33.778462 -4.038312 -3.463818 8.031307 5.496488 
68.548988 10.054497 42.587849 -162.112489 2.845017 92.156794 7.724456 -1.580535 -32.158588 -15.748849 11.590012 137.159461 -4.654627 -0.874104 -24.756434 nan nan nan -21.109569 -16.128316 -90.960297 -10.829675 -16.103395 133.427489 -1.647945 -5.625532 -38.894307 nan nan nan 8.083835 -9.028496 63.325016 1.820949 8.174852 -13.353509 0.781543 1.078641 5.776203 1.278797 -3.629707 -13.105947 -0.383799 -11.599329 -7.897691 -19.916078 -10.768664 3.072417 -54.936352 10.695346 8.913104 -0.205677 -27.583827 16.961459 0.195496 -19.810946 -12.155394 16.092262 25.082830 1.141008 24.843669 10.300871 -3.503005 -8.925148 33.664380 -4.162221 -3.756168 8.066934 5.773715 
68.518753 10.097271 42.567749 -162.097245 2.845656 92.051671 7.692012 -1.562199 -32.010713 -15.806409 11.608625 137.097797 -4.832245 -0.694745 -24.574991 nan nan nan -21.203743 -16.175472 -90.824981 -10.869403 -16.090488 133.424273 -1.627809 -5.578413 -38.732179 nan nan nan 8.088017 -9.055601 63.412736 1.814253 8.168529 -13.336096 0.786524 1.076770 5.754175 1.230239 -3.628965 -12.876013 -0.353885 -11.558216 -8.107990 -19.985331 -10.758599 3.104952 -54.855155 10.757370 8.936949 -0.205871 -27.625947 16.893214 0.007328 -19.759287 -12.228843 16.090855 25.109314 1.186914 24.891982 10.293348 -3.496232 -9.079458 33.569773 -4.252657 -3.697126 7.899989 5.748510 
68.511726 10.103718 42.553123 -162.090852 2.817862 92.026255 7.663179 -1.572153 -31.987194 -15.805121 11.597993 137.086975 -4.871682 -0.538827 -24.581640 nan nan nan -21.262255 -16.192162 -90.811648 -10.899937 -16.065101 133.405802 -1.587031 -5.510630 -38.540376 nan nan nan 8.089453 -9.062246 63.461488 1.785820 8.179444 -13.412381 0.768984 1.062254 5.799667 1.237398 -3.568710 -12.860387 -0.337639 -11.609301 -8.150407 -19.975711 -10.728153 3.112424 -54.782455 10.760397 8.937754 -0.230050 -27.662746 16.930469 -0.274337 -19.848930 -12.171957 16.099967 25.062840 1.148295 24.951430 10.349148 -3.499829 -9.164756 33.471455 -4.222681 -3.537352 7.893460 5.631799 
